<svg width="796" height="174" viewBox="0 0 796 174" fill="none" xmlns="http://www.w3.org/2000/svg">
<path d="M103.383 3.5951C103.863 3.44151 104.386 3.47375 104.846 3.6908L138.141 19.391L138.269 19.4574C138.895 19.8097 139.287 20.474 139.287 21.1996V79.9086C139.287 80.6523 138.875 81.3348 138.216 81.6801L108.708 97.141C108.219 97.3974 107.648 97.4378 107.132 97.2611L106.914 97.1722L35.5451 62.9066C34.852 62.5739 34.4106 61.8727 34.4103 61.1039V38.3187C34.4103 36.8686 35.9055 35.9003 37.2286 36.4935L99.6027 64.4799C104.896 66.8545 110.877 62.9822 110.877 57.181V36.8002C110.877 33.7239 109.113 30.9198 106.34 29.5883L76.7931 15.4017L103.18 3.67225L103.383 3.5951ZM34.6505 3.62147C35.1295 3.45287 35.6581 3.47254 36.1271 3.68104L68.3995 18.0277L103.743 34.9974C104.436 35.3304 104.877 36.0313 104.877 36.8002V57.181C104.877 58.6311 103.382 59.5996 102.059 59.0062L39.6857 31.0199C34.3926 28.645 28.4103 32.5173 28.4103 38.3187V61.1039C28.4106 64.1798 30.1746 66.9833 32.9474 68.3148L63.006 82.7465L36.0558 97.1244C35.5645 97.3863 34.9893 97.4298 34.4689 97.2523L34.2492 97.1625L1.1349 81.2631C0.485078 80.9511 0.0562016 80.3156 0.00501251 79.6039L0.0001297 79.4603L0.00305939 21.5033L0.0079422 21.3597C0.058902 20.6478 0.486871 20.0117 1.13685 19.6996L34.4484 3.70545L34.6505 3.62147Z" fill="#FECB1F"/>
<path d="M223.136 48.4029C228.285 49.3222 232.651 52.0343 236.237 56.539C239.822 61.0437 241.615 66.146 241.615 71.8459C241.615 76.7184 240.328 81.1312 237.754 85.0843C235.271 88.9455 231.64 92.0253 226.86 94.3236C222.079 96.53 216.517 97.6332 210.174 97.6332H171.837V1.79269H208.381C214.908 1.79269 220.516 2.8959 225.205 5.1023C229.893 7.3087 233.433 10.2965 235.823 14.0658C238.213 17.7431 239.409 21.8801 239.409 26.4768C239.409 31.9928 237.938 36.5895 234.996 40.2668C232.054 43.9441 228.101 46.6562 223.136 48.4029ZM187.558 42.0595H207.002C212.15 42.0595 216.149 40.9103 218.999 38.612C221.941 36.2217 223.412 32.8202 223.412 28.4074C223.412 24.0865 221.941 20.731 218.999 18.3407C216.149 15.8585 212.15 14.6174 207.002 14.6174H187.558V42.0595ZM208.795 84.8085C214.127 84.8085 218.31 83.5214 221.344 80.9473C224.377 78.3732 225.894 74.7878 225.894 70.1911C225.894 65.5025 224.285 61.7792 221.068 59.0212C217.85 56.2632 213.575 54.8842 208.243 54.8842H187.558V84.8085H208.795Z" fill="black"/>
<path d="M276.33 83.9811H320.872V97.6332H257.713V85.3601L302.117 15.4448H257.713V1.79269H320.872V14.0658L276.33 83.9811Z" fill="black"/>
<path d="M391.818 48.4029C396.966 49.3222 401.333 52.0343 404.918 56.539C408.503 61.0437 410.296 66.146 410.296 71.8459C410.296 76.7184 409.009 81.1312 406.435 85.0843C403.953 88.9455 400.321 92.0253 395.541 94.3236C390.76 96.53 385.198 97.6332 378.855 97.6332H340.519V1.79269H377.062C383.59 1.79269 389.197 2.8959 393.886 5.1023C398.575 7.3087 402.114 10.2965 404.504 14.0658C406.895 17.7431 408.09 21.8801 408.09 26.4768C408.09 31.9928 406.619 36.5895 403.677 40.2668C400.735 43.9441 396.782 46.6562 391.818 48.4029ZM356.239 42.0595H375.683C380.832 42.0595 384.831 40.9103 387.681 38.612C390.622 36.2217 392.093 32.8202 392.093 28.4074C392.093 24.0865 390.622 20.731 387.681 18.3407C384.831 15.8585 380.832 14.6174 375.683 14.6174H356.239V42.0595ZM377.476 84.8085C382.808 84.8085 386.991 83.5214 390.025 80.9473C393.059 78.3732 394.576 74.7878 394.576 70.1911C394.576 65.5025 392.967 61.7792 389.749 59.0212C386.531 56.2632 382.257 54.8842 376.924 54.8842H356.239V84.8085H377.476Z" fill="black"/>
<path d="M510.376 29.3727C507.618 22.11 503.021 16.3182 496.586 11.9973C490.242 7.67643 482.704 5.516 473.97 5.516C466.34 5.516 459.445 7.3087 453.285 10.8941C447.126 14.4795 442.253 19.5818 438.668 26.201C435.082 32.8202 433.29 40.5426 433.29 49.3682C433.29 58.1938 435.082 65.9162 438.668 72.5354C442.253 79.1546 447.126 84.2569 453.285 87.8423C459.445 91.3358 466.34 93.0825 473.97 93.0825C481.325 93.0825 487.99 91.4277 493.966 88.1181C499.941 84.8085 504.722 80.1199 508.307 74.0523C511.893 67.8928 513.869 60.722 514.237 52.5399H471.074V47.2997H520.58V51.4367C520.305 60.4462 518.144 68.5363 514.099 75.7071C510.054 82.8779 504.538 88.4858 497.551 92.5309C490.564 96.576 482.704 98.5985 473.97 98.5985C465.053 98.5985 457.008 96.53 449.838 92.393C442.667 88.1641 437.059 82.3263 433.014 74.8797C428.969 67.3412 426.946 58.8373 426.946 49.3682C426.946 39.8071 428.969 31.3033 433.014 23.8567C437.059 16.3182 442.667 10.4804 449.838 6.34339C457.008 2.11446 465.053 0 473.97 0C484.359 0 493.322 2.6201 500.861 7.8603C508.491 13.0086 514.053 20.1794 517.546 29.3727H510.376Z" fill="black"/>
<path d="M548.018 6.0676V46.4723H586.63V51.7125H548.018V92.393H590.767V97.6332H541.812V0.827398H590.767V6.0676H548.018Z" fill="black"/>
<path d="M666.897 72.8112H620.976L611.737 97.6332H604.98L640.558 0.5H647.453L682.893 97.6332H676.136L666.897 72.8112ZM664.966 67.571L644.006 8.5L622.907 67.571H664.966Z" fill="black"/>
<path d="M753.196 97.6332L728.374 56.4011H707.138V97.6332H700.932V0.827398H727.547C738.303 0.827398 746.347 3.35556 751.679 8.4119C757.103 13.4682 759.815 20.1794 759.815 28.5453C759.815 35.9919 757.701 42.1514 753.472 47.0239C749.335 51.8044 743.267 54.7463 735.269 55.8495L760.643 97.6332H753.196ZM707.138 51.1609H727.823C736.372 51.1609 742.762 49.0924 746.991 44.9554C751.22 40.8184 753.334 35.3484 753.334 28.5453C753.334 13.744 744.738 6.34339 727.547 6.34339H707.138V51.1609Z" fill="black"/>
<path d="M383.46 154.024H372.012L369.816 160H367.152L376.332 135.16H379.176L388.32 160H385.656L383.46 154.024ZM382.704 151.936L377.736 138.328L372.768 151.936H382.704ZM419.764 139.984C422.068 139.984 423.94 140.716 425.38 142.18C426.844 143.62 427.576 145.72 427.576 148.48V160H425.092V148.768C425.092 146.632 424.576 145 423.544 143.872C422.512 142.744 421.108 142.18 419.332 142.18C417.484 142.18 416.008 142.792 414.904 144.016C413.8 145.24 413.248 147.016 413.248 149.344V160H410.764V148.768C410.764 146.632 410.248 145 409.216 143.872C408.184 142.744 406.768 142.18 404.968 142.18C403.12 142.18 401.644 142.792 400.54 144.016C399.436 145.24 398.884 147.016 398.884 149.344V160H396.364V140.344H398.884V143.728C399.508 142.504 400.396 141.58 401.548 140.956C402.7 140.308 403.984 139.984 405.4 139.984C407.104 139.984 408.592 140.392 409.864 141.208C411.16 142.024 412.096 143.224 412.672 144.808C413.2 143.248 414.1 142.06 415.372 141.244C416.668 140.404 418.132 139.984 419.764 139.984ZM439.657 144.664C440.281 143.344 441.265 142.252 442.609 141.388C443.977 140.5 445.597 140.056 447.469 140.056C449.245 140.056 450.841 140.476 452.257 141.316C453.697 142.132 454.813 143.308 455.605 144.844C456.421 146.356 456.829 148.12 456.829 150.136C456.829 152.152 456.421 153.928 455.605 155.464C454.813 157 453.697 158.188 452.257 159.028C450.841 159.868 449.245 160.288 447.469 160.288C445.621 160.288 444.013 159.856 442.645 158.992C441.277 158.104 440.281 157 439.657 155.68V169.288H437.173V140.344H439.657V144.664ZM454.273 150.136C454.273 148.504 453.949 147.1 453.301 145.924C452.677 144.724 451.813 143.812 450.709 143.188C449.605 142.564 448.357 142.252 446.965 142.252C445.621 142.252 444.385 142.576 443.257 143.224C442.153 143.872 441.277 144.796 440.629 145.996C439.981 147.196 439.657 148.588 439.657 150.172C439.657 151.756 439.981 153.148 440.629 154.348C441.277 155.548 442.153 156.472 443.257 157.12C444.385 157.768 445.621 158.092 446.965 158.092C448.357 158.092 449.605 157.78 450.709 157.156C451.813 156.508 452.677 155.584 453.301 154.384C453.949 153.16 454.273 151.744 454.273 150.136ZM467.986 133.36V160H465.466V133.36H467.986ZM478.953 136.636C478.449 136.636 478.017 136.456 477.657 136.096C477.297 135.736 477.117 135.292 477.117 134.764C477.117 134.236 477.297 133.804 477.657 133.468C478.017 133.108 478.449 132.928 478.953 132.928C479.457 132.928 479.889 133.108 480.249 133.468C480.609 133.804 480.789 134.236 480.789 134.764C480.789 135.292 480.609 135.736 480.249 136.096C479.889 136.456 479.457 136.636 478.953 136.636ZM480.213 140.344V160H477.693V140.344H480.213ZM497.659 142.468H493.087V160H490.567V142.468H487.831V140.344H490.567V138.976C490.567 136.84 491.107 135.268 492.187 134.26C493.291 133.252 495.067 132.748 497.515 132.748V134.908C495.883 134.908 494.731 135.22 494.059 135.844C493.411 136.468 493.087 137.512 493.087 138.976V140.344H497.659V142.468ZM521.826 140.344L510.162 169.252H507.534L511.35 159.892L503.286 140.344H506.058L512.754 157.12L519.234 140.344H521.826ZM559.754 134.836L551.69 150.208V160H549.17V150.208L541.034 134.836H543.878L550.43 147.904L556.946 134.836H559.754ZM576.047 160.288C574.199 160.288 572.531 159.88 571.043 159.064C569.579 158.224 568.415 157.048 567.551 155.536C566.711 154 566.291 152.212 566.291 150.172C566.291 148.132 566.723 146.356 567.587 144.844C568.451 143.308 569.627 142.132 571.115 141.316C572.603 140.476 574.271 140.056 576.119 140.056C577.967 140.056 579.635 140.476 581.123 141.316C582.635 142.132 583.811 143.308 584.651 144.844C585.515 146.356 585.947 148.132 585.947 150.172C585.947 152.188 585.515 153.964 584.651 155.5C583.787 157.036 582.599 158.224 581.087 159.064C579.575 159.88 577.895 160.288 576.047 160.288ZM576.047 158.092C577.343 158.092 578.543 157.804 579.647 157.228C580.751 156.628 581.639 155.74 582.311 154.564C583.007 153.364 583.355 151.9 583.355 150.172C583.355 148.444 583.019 146.992 582.347 145.816C581.675 144.616 580.787 143.728 579.683 143.152C578.579 142.552 577.379 142.252 576.083 142.252C574.787 142.252 573.587 142.552 572.483 143.152C571.379 143.728 570.491 144.616 569.819 145.816C569.171 146.992 568.847 148.444 568.847 150.172C568.847 151.9 569.171 153.364 569.819 154.564C570.491 155.74 571.367 156.628 572.447 157.228C573.551 157.804 574.751 158.092 576.047 158.092ZM611.568 140.344V160H609.048V156.544C608.472 157.768 607.584 158.704 606.384 159.352C605.184 160 603.84 160.324 602.352 160.324C600 160.324 598.08 159.604 596.592 158.164C595.104 156.7 594.36 154.588 594.36 151.828V140.344H596.844V151.54C596.844 153.676 597.372 155.308 598.428 156.436C599.508 157.564 600.972 158.128 602.82 158.128C604.716 158.128 606.228 157.528 607.356 156.328C608.484 155.128 609.048 153.364 609.048 151.036V140.344H611.568ZM623.841 143.836C624.393 142.612 625.233 141.664 626.361 140.992C627.513 140.32 628.917 139.984 630.573 139.984V142.612H629.889C628.065 142.612 626.601 143.104 625.497 144.088C624.393 145.072 623.841 146.716 623.841 149.02V160H621.321V140.344H623.841V143.836ZM682.771 134.836L675.643 160H672.835L666.499 138.544L660.019 160L657.283 160.036L650.299 134.836H652.999L658.759 156.904L665.203 134.836H668.011L674.275 156.904L680.071 134.836H682.771ZM699.23 160.288C697.382 160.288 695.714 159.88 694.226 159.064C692.762 158.224 691.598 157.048 690.734 155.536C689.894 154 689.474 152.212 689.474 150.172C689.474 148.132 689.906 146.356 690.77 144.844C691.634 143.308 692.81 142.132 694.298 141.316C695.786 140.476 697.454 140.056 699.302 140.056C701.15 140.056 702.818 140.476 704.306 141.316C705.818 142.132 706.994 143.308 707.834 144.844C708.698 146.356 709.13 148.132 709.13 150.172C709.13 152.188 708.698 153.964 707.834 155.5C706.97 157.036 705.782 158.224 704.27 159.064C702.758 159.88 701.078 160.288 699.23 160.288ZM699.23 158.092C700.526 158.092 701.726 157.804 702.83 157.228C703.934 156.628 704.822 155.74 705.494 154.564C706.19 153.364 706.538 151.9 706.538 150.172C706.538 148.444 706.202 146.992 705.53 145.816C704.858 144.616 703.97 143.728 702.866 143.152C701.762 142.552 700.562 142.252 699.266 142.252C697.97 142.252 696.77 142.552 695.666 143.152C694.562 143.728 693.674 144.616 693.002 145.816C692.354 146.992 692.03 148.444 692.03 150.172C692.03 151.9 692.354 153.364 693.002 154.564C693.674 155.74 694.55 156.628 695.63 157.228C696.734 157.804 697.934 158.092 699.23 158.092ZM720.244 143.836C720.796 142.612 721.636 141.664 722.764 140.992C723.916 140.32 725.32 139.984 726.976 139.984V142.612H726.292C724.468 142.612 723.004 143.104 721.9 144.088C720.796 145.072 720.244 146.716 720.244 149.02V160H717.724V140.344H720.244V143.836ZM737.287 133.36V160H734.767V133.36H737.287ZM745.841 150.136C745.841 148.12 746.249 146.356 747.065 144.844C747.881 143.308 748.997 142.132 750.413 141.316C751.853 140.476 753.473 140.056 755.273 140.056C757.001 140.056 758.561 140.476 759.953 141.316C761.345 142.156 762.365 143.248 763.013 144.592V133.36H765.533V160H763.013V155.608C762.413 156.976 761.429 158.104 760.061 158.992C758.693 159.856 757.085 160.288 755.237 160.288C753.437 160.288 751.817 159.868 750.377 159.028C748.961 158.188 747.845 157 747.029 155.464C746.237 153.928 745.841 152.152 745.841 150.136ZM763.013 150.172C763.013 148.588 762.689 147.196 762.041 145.996C761.393 144.796 760.505 143.872 759.377 143.224C758.273 142.576 757.049 142.252 755.705 142.252C754.313 142.252 753.065 142.564 751.961 143.188C750.857 143.812 749.981 144.724 749.333 145.924C748.709 147.1 748.397 148.504 748.397 150.136C748.397 151.744 748.709 153.16 749.333 154.384C749.981 155.584 750.857 156.508 751.961 157.156C753.065 157.78 754.313 158.092 755.705 158.092C757.049 158.092 758.273 157.768 759.377 157.12C760.505 156.472 761.393 155.548 762.041 154.348C762.689 153.148 763.013 151.756 763.013 150.172Z" fill="black"/>
<path d="M771.572 129.617H777.284V130.721H775.1L775.124 138.065H773.732L773.756 130.721H771.572V129.617ZM787.796 129.617V138.065H786.524L786.5 131.609L783.668 138.065H782.66L779.852 131.537V138.065H778.604V129.617H780.308L783.188 136.433L786.164 129.617H787.796Z" fill="black"/>
<path d="M783.127 1.69043C789.443 1.69059 794.563 6.81083 794.563 13.127C794.563 19.4429 789.443 24.5633 783.127 24.5635C776.811 24.5635 771.691 19.443 771.69 13.127C771.69 6.81073 776.811 1.69043 783.127 1.69043Z" stroke="black" stroke-width="1.38027"/>
<path d="M778.296 19.3379V6.32391H783.408C784.59 6.32391 785.56 6.4976 786.319 6.84498C787.077 7.18812 787.639 7.66047 788.003 8.26203C788.367 8.86359 788.55 9.54775 788.55 10.3145C788.55 11.0813 788.367 11.7612 788.003 12.3543C787.639 12.9474 787.08 13.4134 786.326 13.7523C785.572 14.087 784.61 14.2543 783.437 14.2543H779.3V12.8309H783.378C784.186 12.8309 784.836 12.7292 785.329 12.5259C785.826 12.3225 786.186 12.0345 786.407 11.6617C786.634 11.2846 786.747 10.8356 786.747 10.3145C786.747 9.79346 786.634 9.33806 786.407 8.94831C786.181 8.55857 785.819 8.25779 785.321 8.04598C784.824 7.82993 784.166 7.7219 783.349 7.7219H780.128V19.3379H778.296ZM785.197 13.7523L789.141 19.3379H787.013L782.929 13.7523H785.197Z" fill="black"/>
</svg>
